<svg id="Layer_1" data-name="Layer 1" width="170" height="53" xmlns="http://www.w3.org/2000/svg" viewBox="0 0 166.13 21.94"><defs><style>.cls-1{fill:#ff0018;}.cls-2{fill:#001c4c;fill-rule:evenodd;}</style></defs><path class="cls-1" d="M26.17,27.49h0L18.88,16.6,9.79,30.13v0h4.6l4.49-6.68,6.28,9.37h0v0a12.42,12.42,0,0,0,1-4.93Z" transform="translate(-1.93 -15.53)"/><path class="cls-1" d="M18.92,33.65H3.31l12.07-18h0a12.34,12.34,0,0,0-4.89.46h0L1.94,28.83h0a12.43,12.43,0,0,0,1.36,4.81v0a12.21,12.21,0,0,0,3,3.8H21.47l-2.55-3.81Z" transform="translate(-1.93 -15.53)"/><path class="cls-2" d="M41.4,24.91h7.67v2.65H41.4v4.61h8.29v2.65H38.29V18.18h11.4v2.65H41.4Z" transform="translate(-1.93 -15.53)"/><path class="cls-2" d="M65.92,28.32a6.83,6.83,0,1,1-13.65,0V18.18h3.11v10.6a3.72,3.72,0,0,0,7.44,0V18.18h3.1Z" transform="translate(-1.93 -15.53)"/><path class="cls-2" d="M76.63,20.83H72v4.59h4.61a2.3,2.3,0,0,0,0-4.59Zm2,6.86,4.11,7.13H79.18l-3.89-6.75H72v6.75H68.91V18.18h7.64c3,0,5.45,2.55,5.45,4.94A4.65,4.65,0,0,1,78.63,27.69Z" transform="translate(-1.93 -15.53)"/><path class="cls-2" d="M92.41,20.63c3,0,5.48,2.28,5.48,5.87s-2.45,5.87-5.48,5.87-5.49-2.28-5.49-5.87C86.92,23.26,89.05,20.63,92.41,20.63Zm0,14.52a8.65,8.65,0,1,0-8.49-8.65A8.57,8.57,0,0,0,92.41,35.15Z" transform="translate(-1.93 -15.53)"/><path class="cls-2" d="M110.63,32.17a2.43,2.43,0,1,0,0-4.83h-4.09v4.83Zm2.29-6.47c2.14.64,3.2,1.86,3.2,4.15a5.2,5.2,0,0,1-5.06,5h-7.63V18.18H111a4.16,4.16,0,0,1,4.41,3.92A3.85,3.85,0,0,1,112.92,25.7Zm-6.38-1h4a2,2,0,0,0,2.09-1.94,2,2,0,0,0-2.16-1.93h-4Z" transform="translate(-1.93 -15.53)"/><path class="cls-2" d="M153.83,18.18h3.1v7.06l6.71-7.06h3.73l-6.23,6.56,6.93,10.08h-3.56l-5.43-7.91-2.15,2.25v5.66h-3.1Z" transform="translate(-1.93 -15.53)"/><path class="cls-2" d="M128.75,30.39h-6.57l-1.71,4.43h-3.11l6.69-16.64h2.83l6.68,16.64h-3.11Zm-5.55-2.65h4.53l-2.27-5.88Z" transform="translate(-1.93 -15.53)"/><path class="cls-2" d="M139.09,18.18l7.64,11.9V18.18h3.11V34.82h-3.17L139.09,23v11.8H136V18.18Z" transform="translate(-1.93 -15.53)"/></svg>